<?xml version="1.0" encoding="UTF-8"?>
<svg xmlns="http://www.w3.org/2000/svg" version="1.1" viewBox="0 0 31.9 32">
  <defs>
    <style>
      .cls-1 {
        fill: #fe5c2b;
      }
    </style>
  </defs>
  <!-- Generator: Adobe Illustrator 28.7.7, SVG Export Plug-In . SVG Version: 1.2.0 Build 194)  -->
  <g>
    <g id="Layer_1">
      <polygon class="cls-1" points="31.9 14 31.2 10.9 22.3 12.9 29.4 7.3 27.5 4.8 20.3 10.5 24.3 2.3 21.5 .9 17.5 9.1 17.5 0 14.4 0 14.4 9.1 10.4 .9 7.6 2.3 11.5 10.5 4.4 4.8 2.5 7.3 9.6 12.9 .7 10.9 0 14 8.9 16 0 18 .7 21.1 9.6 19.1 2.5 24.7 4.4 27.2 11.5 21.5 7.6 29.7 10.4 31.1 14.4 22.9 14.4 32 17.5 32 17.5 22.9 21.5 31.1 24.3 29.7 20.3 21.5 27.5 27.2 29.4 24.7 22.3 19.1 31.2 21.1 31.9 18 23 16 31.9 14"/>
    </g>
  </g>
</svg>